<svg viewBox="0 0 240 200" xmlns="http://www.w3.org/2000/svg">
  <defs>
    <linearGradient id="ek-tray" x1="0" y1="0" x2="0" y2="1">
      <stop offset="0%" stop-color="#0f2419"/>
      <stop offset="100%" stop-color="#065f46"/>
    </linearGradient>
    <linearGradient id="ek-tray-back" x1="0" y1="0" x2="0" y2="1">
      <stop offset="0%" stop-color="#065f46"/>
      <stop offset="100%" stop-color="#022c22"/>
    </linearGradient>
    <radialGradient id="ek-glow" cx="50%" cy="60%">
      <stop offset="0%" stop-color="#10b981" stop-opacity="0.15"/>
      <stop offset="100%" stop-color="#10b981" stop-opacity="0"/>
    </radialGradient>
  </defs>
  <ellipse cx="120" cy="170" rx="80" ry="14" fill="url(#ek-glow)"/>
  <g transform="translate(50 70)">
    <path d="M0,40 L20,0 L120,0 L140,40 L140,60 L0,60 Z" fill="url(#ek-tray-back)"/>
    <path d="M0,40 L140,40 L130,80 Q126,90 116,90 L24,90 Q14,90 10,80 Z" fill="url(#ek-tray)" stroke="#022c22" stroke-width="1.5"/>
    <rect x="50" y="14" width="40" height="14" rx="2" fill="#10b981"/>
    <rect x="56" y="18" width="28" height="3" rx="1" fill="#ffffff"/>
    <rect x="56" y="23" width="20" height="2" rx="1" fill="#ffffff" opacity="0.7"/>
    <ellipse cx="70" cy="40" rx="55" ry="3" fill="#000000" opacity="0.3"/>
    <text x="70" y="62" font-family="system-ui,sans-serif" font-size="11" font-weight="700" fill="#34d399" text-anchor="middle">INBOX</text>
    <text x="70" y="78" font-family="system-ui,sans-serif" font-size="20" font-weight="800" fill="#ffffff" text-anchor="middle">0</text>
  </g>
  <g transform="translate(180 60)">
    <circle cx="0" cy="0" r="18" fill="#10b981"/>
    <path d="M-8,0 L-2,6 L8,-6" stroke="#ffffff" stroke-width="3" fill="none" stroke-linecap="round" stroke-linejoin="round"/>
  </g>
  <g fill="#10b981" font-family="system-ui,sans-serif" font-weight="700" opacity="0.5">
    <text x="50" y="50" font-size="20">z</text>
    <text x="42" y="40" font-size="14">z</text>
    <text x="36" y="32" font-size="10">z</text>
  </g>
</svg>
