<svg viewBox="0 0 400 240" xmlns="http://www.w3.org/2000/svg">
  <defs>
    <linearGradient id="tk-bub1" x1="0" y1="0" x2="0" y2="1">
      <stop offset="0%" stop-color="#fb923c"/>
      <stop offset="100%" stop-color="#ea580c"/>
    </linearGradient>
    <linearGradient id="tk-bub2" x1="0" y1="0" x2="0" y2="1">
      <stop offset="0%" stop-color="#10b981"/>
      <stop offset="100%" stop-color="#047857"/>
    </linearGradient>
    <linearGradient id="tk-bub3" x1="0" y1="0" x2="0" y2="1">
      <stop offset="0%" stop-color="#60a5fa"/>
      <stop offset="100%" stop-color="#1d4ed8"/>
    </linearGradient>
  </defs>
  <g fill="#10b981" opacity="0.15">
    <circle cx="60" cy="30" r="3"/>
    <circle cx="100" cy="60" r="2"/>
    <circle cx="340" cy="40" r="3"/>
    <circle cx="370" cy="100" r="2"/>
    <circle cx="50" cy="200" r="2"/>
    <circle cx="380" cy="200" r="2.5"/>
  </g>
  <g transform="translate(50 60)">
    <path d="M0,15 Q0,0 15,0 L105,0 Q120,0 120,15 L120,55 Q120,70 105,70 L40,70 L25,86 L28,70 L15,70 Q0,70 0,55 Z" fill="url(#tk-bub1)"/>
    <circle cx="30" cy="35" r="5" fill="#ffffff" opacity="0.95"/>
    <circle cx="60" cy="35" r="5" fill="#ffffff" opacity="0.95"/>
    <circle cx="90" cy="35" r="5" fill="#ffffff" opacity="0.95"/>
  </g>
  <g transform="translate(220 100)">
    <path d="M0,15 Q0,0 15,0 L125,0 Q140,0 140,15 L140,55 Q140,70 125,70 L100,70 L113,86 L110,70 L15,70 Q0,70 0,55 Z" fill="url(#tk-bub2)" transform="scale(-1 1) translate(-140 0)"/>
    <rect x="20" y="20" width="100" height="6" rx="2" fill="#ffffff" opacity="0.95"/>
    <rect x="20" y="32" width="80" height="4" rx="1.5" fill="#ffffff" opacity="0.8"/>
    <rect x="20" y="42" width="90" height="4" rx="1.5" fill="#ffffff" opacity="0.8"/>
    <rect x="20" y="52" width="60" height="4" rx="1.5" fill="#ffffff" opacity="0.6"/>
  </g>
  <g transform="translate(120 160)">
    <path d="M0,12 Q0,0 12,0 L80,0 Q92,0 92,12 L92,38 Q92,50 80,50 L40,50 L30,62 L32,50 L12,50 Q0,50 0,38 Z" fill="url(#tk-bub3)"/>
    <circle cx="20" cy="25" r="3" fill="#ffffff"/>
    <circle cx="35" cy="25" r="3" fill="#ffffff"/>
    <circle cx="50" cy="25" r="3" fill="#ffffff"/>
    <circle cx="65" cy="25" r="3" fill="#ffffff" opacity="0.5"/>
  </g>
  <g transform="translate(310 160)">
    <g transform="rotate(12)">
      <rect x="0" y="0" width="60" height="48" rx="6" fill="#fef3c7" stroke="#a16207" stroke-width="1.5"/>
      <line x1="22" y1="6" x2="22" y2="42" stroke="#a16207" stroke-width="1" stroke-dasharray="2 2"/>
      <text x="11" y="30" font-family="system-ui,sans-serif" font-size="14" font-weight="800" fill="#a16207" text-anchor="middle">#</text>
      <rect x="28" y="10" width="26" height="4" rx="1" fill="#a16207"/>
      <rect x="28" y="18" width="20" height="3" rx="1" fill="#a16207" opacity="0.6"/>
      <path d="M40,28 l1.5,4.5 l4.5,0 l-3.5,3 l1.5,4.5 l-4,-3 l-4,3 l1.5,-4.5 l-3.5,-3 l4.5,0 z" fill="#dc2626"/>
    </g>
  </g>
</svg>
