<svg viewBox="0 0 400 240" xmlns="http://www.w3.org/2000/svg">
  <defs>
    <linearGradient id="tr-pageL" x1="0" y1="0" x2="1" y2="0">
      <stop offset="0%" stop-color="#f8fafc"/>
      <stop offset="100%" stop-color="#e2e8f0"/>
    </linearGradient>
    <linearGradient id="tr-pageR" x1="0" y1="0" x2="1" y2="0">
      <stop offset="0%" stop-color="#e2e8f0"/>
      <stop offset="100%" stop-color="#f8fafc"/>
    </linearGradient>
    <linearGradient id="tr-cover" x1="0" y1="0" x2="0" y2="1">
      <stop offset="0%" stop-color="#065f46"/>
      <stop offset="100%" stop-color="#0f2419"/>
    </linearGradient>
    <radialGradient id="tr-bulbglow" cx="50%" cy="40%">
      <stop offset="0%" stop-color="#fef3c7" stop-opacity="0.95"/>
      <stop offset="100%" stop-color="#fef3c7" stop-opacity="0"/>
    </radialGradient>
  </defs>
  <circle cx="310" cy="80" r="70" fill="url(#tr-bulbglow)"/>
  <g transform="translate(80 100)">
    <path d="M-90,60 L-90,-2 Q-90,-8 -84,-10 L0,-30 L84,-10 Q90,-8 90,-2 L90,60 L84,52 L0,40 L-84,52 Z" fill="url(#tr-cover)"/>
    <path d="M-84,50 L0,38 L0,-22 L-84,-8 Z" fill="url(#tr-pageL)" stroke="#94a3b8" stroke-width="0.5"/>
    <path d="M84,50 L0,38 L0,-22 L84,-8 Z" fill="url(#tr-pageR)" stroke="#94a3b8" stroke-width="0.5"/>
    <g stroke="#94a3b8" stroke-width="1" opacity="0.6">
      <line x1="-72" y1="-2" x2="-8" y2="-12"/>
      <line x1="-72" y1="6" x2="-8" y2="-4"/>
      <line x1="-72" y1="14" x2="-8" y2="4"/>
      <line x1="-72" y1="22" x2="-8" y2="12"/>
      <line x1="-72" y1="30" x2="-8" y2="20"/>
      <line x1="-72" y1="38" x2="-8" y2="28"/>
    </g>
    <g stroke="#94a3b8" stroke-width="1" opacity="0.6">
      <line x1="8" y1="-12" x2="72" y2="-2"/>
      <line x1="8" y1="-4" x2="72" y2="6"/>
      <line x1="8" y1="4" x2="72" y2="14"/>
      <line x1="8" y1="12" x2="72" y2="22"/>
      <line x1="8" y1="20" x2="72" y2="30"/>
      <line x1="8" y1="28" x2="72" y2="38"/>
    </g>
    <path d="M30,38 L30,68 L36,62 L42,68 L42,40 Z" fill="#dc2626"/>
  </g>
  <g transform="translate(200 80)">
    <path d="M0,-2 L40,-14 L80,-2 L40,10 Z" fill="#0f2419"/>
    <path d="M0,-2 L40,-14 L80,-2 L40,10 Z" fill="none" stroke="#000" stroke-width="0.5"/>
    <path d="M14,8 Q14,18 28,22 Q40,24 52,22 Q66,18 66,8" fill="none" stroke="#0f2419" stroke-width="6" stroke-linecap="round"/>
    <line x1="40" y1="0" x2="62" y2="6" stroke="#fbbf24" stroke-width="2"/>
    <circle cx="62" cy="6" r="2" fill="#fbbf24"/>
    <path d="M60,8 L62,18 L64,8" stroke="#fbbf24" stroke-width="1.5" fill="none"/>
    <circle cx="40" cy="0" r="2" fill="#fbbf24"/>
  </g>
  <g transform="translate(310 80)">
    <path d="M0,-24 Q-18,-24 -18,-6 Q-18,4 -10,12 L-10,22 L10,22 L10,12 Q18,4 18,-6 Q18,-24 0,-24 Z" fill="#fef3c7" stroke="#a16207" stroke-width="2"/>
    <path d="M-6,8 Q-6,2 0,2 Q6,2 6,8" stroke="#fbbf24" stroke-width="1.5" fill="none"/>
    <line x1="-3" y1="4" x2="3" y2="4" stroke="#fbbf24" stroke-width="1"/>
    <rect x="-10" y="22" width="20" height="3" fill="#a16207"/>
    <rect x="-10" y="27" width="20" height="3" fill="#a16207"/>
    <rect x="-8" y="32" width="16" height="3" fill="#a16207"/>
    <g stroke="#fbbf24" stroke-width="2.5" stroke-linecap="round">
      <line x1="0" y1="-34" x2="0" y2="-40"/>
      <line x1="-22" y1="-22" x2="-28" y2="-26"/>
      <line x1="22" y1="-22" x2="28" y2="-26"/>
      <line x1="-26" y1="-2" x2="-32" y2="-2"/>
      <line x1="26" y1="-2" x2="32" y2="-2"/>
    </g>
  </g>
  <g fill="#fbbf24">
    <path d="M50,40 l1.5,-4 l1.5,4 l4,1.5 l-4,1.5 l-1.5,4 l-1.5,-4 l-4,-1.5 z" opacity="0.8"/>
    <path d="M240,40 l1,-3 l1,3 l3,1 l-3,1 l-1,3 l-1,-3 l-3,-1 z" opacity="0.6"/>
    <path d="M120,200 l1,-3 l1,3 l3,1 l-3,1 l-1,3 l-1,-3 l-3,-1 z" opacity="0.6"/>
  </g>
  <g transform="translate(280 180) rotate(-30)">
    <rect x="0" y="0" width="60" height="10" rx="1" fill="#fbbf24"/>
    <rect x="0" y="0" width="8" height="10" fill="#dc2626"/>
    <rect x="0" y="0" width="4" height="10" fill="#fca5a5"/>
    <path d="M60,0 L70,5 L60,10 Z" fill="#fef3c7"/>
    <path d="M66,3 L70,5 L66,7 Z" fill="#1e293b"/>
  </g>
</svg>
